<svg width="19" height="20" viewBox="0 0 19 20" fill="none" xmlns="http://www.w3.org/2000/svg">
<path d="M18.0393 2.28491L16.7584 0.930889C15.5843 -0.310296 13.7697 -0.310296 12.5955 0.930889L10.4607 3.30042L15.9045 9.05501L18.1461 6.68547C18.6798 6.1213 19 5.33145 19 4.54161C19 3.75176 18.573 2.84908 18.0393 2.28491Z" fill="white"/>
<path d="M13.5562 8.94217L9.28652 4.42877L0.853933 13.3427C0.320225 13.9069 0 14.6968 0 15.5994V19.0973C0 19.5487 0.320225 20 0.853933 20H4.26966C5.01685 20 5.76405 19.6615 6.4045 19.0973L14.8371 10.1834L13.5562 8.94217Z" fill="white"/>
</svg>
