<svg width="27" height="33" viewBox="0 0 27 33" fill="none" xmlns="http://www.w3.org/2000/svg">
<path d="M13.5001 16.1685C17.9183 16.1685 21.5001 12.605 21.5001 8.20928C21.5001 3.81354 17.9183 0.250092 13.5001 0.250092C9.08178 0.250092 5.50006 3.81354 5.50006 8.20928C5.50006 12.605 9.08178 16.1685 13.5001 16.1685Z" fill="#3D55AB"/>
<path d="M17.6667 19.4849H9.3334C4.50006 19.4849 0.500061 23.4645 0.500061 28.2732C0.500061 29.4339 1.00006 30.4288 2.00006 30.9263C3.50006 31.7554 6.8334 32.7503 13.5001 32.7503C20.1667 32.7503 23.5001 31.7554 25.0001 30.9263C25.8334 30.4288 26.5001 29.4339 26.5001 28.2732C26.5001 23.2987 22.5001 19.4849 17.6667 19.4849Z" fill="#3D55AB"/>
</svg>
